<svg xmlns="http://www.w3.org/2000/svg" width="239" height="24" fill="none"><path fill="url(#a)" d="M14.924 3.428a1.902 1.902 0 0 0-1.359-.567h-.48v12.002a11.2 11.2 0 0 0 2.398-6.951V4.797a1.93 1.93 0 0 0-.562-1.369h.003Z"/><path fill="url(#b)" d="M2.398 2.861h-.48A1.93 1.93 0 0 0 0 4.797v3.126a11.183 11.183 0 0 0 2.4 6.94V2.861h-.002Z"/><path fill="url(#c)" d="M11.2 2.861h-.017v-.55A2.305 2.305 0 0 0 8.89 0H6.596a2.305 2.305 0 0 0-2.293 2.31v.551h-.016v13.884a11.045 11.045 0 0 0 2.767 1.587 1.914 1.914 0 0 0 1.383 0h.005a11.062 11.062 0 0 0 2.763-1.587V2.86h-.006Zm-1.737 0H6.02v-.55c0-.319.258-.578.574-.578h2.293c.316 0 .573.26.573.578v.55h.003Z"/><path fill="#3C3C3C" d="M22.868 18.456h3.538v-6.309h2.085c4.198 0 6.917-2.244 6.917-5.887 0-3.67-2.666-5.887-6.917-5.887h-5.623v18.083Zm5.65-14.862c2.059 0 3.247 1.003 3.247 2.666 0 1.69-1.162 2.693-3.247 2.693h-2.112v-5.36h2.112ZM39.45 7.657a1.732 1.732 0 0 0-3.412.414v10.385h3.51v-7.391c.687-.898 1.611-1.294 2.64-1.294.291 0 .634.053 1.03.159l.924-3.67c-.37-.132-.739-.185-1.188-.185-1.293 0-2.534.766-3.405 1.98l-.098-.398ZM56.484 12.411c0-3.643-2.72-6.336-6.442-6.336s-6.441 2.693-6.441 6.336c0 3.617 2.719 6.31 6.441 6.31 3.723 0 6.442-2.693 6.442-6.31Zm-9.451 0c0-1.848 1.267-3.22 3.01-3.22 1.742 0 3.009 1.372 3.009 3.22 0 1.822-1.267 3.194-3.01 3.194-1.742 0-3.01-1.372-3.01-3.194ZM83.945 9.19c.898 0 1.663.396 2.35 1.03l2.244-2.27c-1.294-1.215-2.93-1.875-4.594-1.875-3.722 0-6.441 2.693-6.441 6.336 0 3.617 2.719 6.31 6.441 6.31 1.9 0 3.485-.634 4.858-2.06l-2.244-2.27c-.766.766-1.61 1.214-2.614 1.214-1.742 0-3.01-1.372-3.01-3.194 0-1.848 1.268-3.22 3.01-3.22ZM89.12 7.87c0 .817.661 1.479 1.477 1.479h.951v4.356c0 3.167 1.69 5.016 4.62 5.016 1.346 0 2.745-.502 3.775-1.4L98.28 14.84c-.581.475-1.109.713-1.663.713-.977 0-1.558-.74-1.558-1.928V9.35h2.402a1.505 1.505 0 1 0 0-3.01H95.06V2.063a1.663 1.663 0 1 0-3.326 0v4.276h-.185l-1.031.056a1.478 1.478 0 0 0-1.398 1.476ZM104.479 2.511c0-1.161-.95-2.112-2.112-2.112-1.135 0-2.085.95-2.085 2.112 0 1.136.95 2.112 2.085 2.112 1.162 0 2.112-.976 2.112-2.112Zm-.343 5.584a1.756 1.756 0 0 0-3.511 0v10.361h3.511V8.095ZM118.132 12.411c0-3.643-2.719-6.336-6.442-6.336-3.722 0-6.441 2.693-6.441 6.336 0 3.617 2.719 6.31 6.441 6.31 3.723 0 6.442-2.693 6.442-6.31Zm-9.451 0c0-1.848 1.267-3.22 3.009-3.22 1.743 0 3.01 1.372 3.01 3.22 0 1.822-1.267 3.194-3.01 3.194-1.742 0-3.009-1.372-3.009-3.194ZM119.245 18.456h3.511V10.96c.713-1.135 1.637-1.69 2.64-1.69 1.426 0 2.218.977 2.218 2.614v6.573h3.511v-7.074c0-3.274-1.742-5.307-4.646-5.307-1.399 0-2.772.74-3.723 2.007l-.102-.421a1.729 1.729 0 0 0-3.409.407v10.388Z"/><path fill="#3C3C3C" fill-rule="evenodd" d="M75 13.95c-.48.932-1.688 2.055-3.166 2.055-.836 0-1.327-.362-1.671-.668l6.553-4.743c-.76-2.51-2.585-4.508-5.99-4.508-3.92 0-5.783 3.293-5.783 5.936 0 1.123.214 2.144.595 3.046-.84.465-1.487.814-2.078.814-1.103 0-1.619-.65-1.619-1.866l-.002-5.63h2.564a1.552 1.552 0 1 0 0-3.104h-2.565V2.064C61.837.796 61 0 59.99 0c-1.012 0-1.843.796-1.843 2.064V5.29l-.914.05a1.525 1.525 0 0 0 .082 3.046h.833v5.948c0 2.825 1.96 4.699 4.733 4.699 1.374 0 2.761-.474 4.367-1.552a6.224 6.224 0 0 0 4.147 1.578c3.194 0 5.111-1.419 6.042-3.338L75 13.95Zm-6.754-2.118c0-1.892 1.313-2.759 2.48-2.759 1.23 0 1.672.747 1.895 1.083l-4.104 3.09c-.149-.384-.271-1-.271-1.415v.001Z" clip-rule="evenodd"/><path fill="#FF6E14" d="M151.658 2.63a1.673 1.673 0 1 0-3.142-1.145L144.08 13.97 139.64 1.54a1.76 1.76 0 1 0-3.305 1.208l5.871 15.708h3.537l5.915-15.826ZM162.529 12.411c0-3.643-2.72-6.336-6.442-6.336s-6.441 2.693-6.441 6.336c0 3.617 2.719 6.31 6.441 6.31s6.442-2.693 6.442-6.31Zm-9.451 0c0-1.848 1.267-3.22 3.009-3.22 1.743 0 3.01 1.372 3.01 3.22 0 1.822-1.267 3.194-3.01 3.194-1.742 0-3.009-1.372-3.009-3.194ZM172.565 17.981c0 1.769-1.637 2.983-4.039 2.983-1.584 0-3.115-.528-4.541-1.584l-1.61 2.614c1.901 1.32 4.065 2.006 6.309 2.006 4.33 0 7.313-2.402 7.313-5.887 0-1.056-.264-2.244-.713-3.273l-.158-.37V8.095a1.756 1.756 0 0 0-3.511 0v5.82c-.66 1.057-1.558 1.611-2.561 1.611-1.346 0-2.112-.897-2.112-2.481v-4.95a1.756 1.756 0 0 0-3.511 0v5.478c0 3.168 1.689 5.148 4.541 5.148 1.689 0 3.273-1.03 4.171-2.667.316.66.422 1.267.422 1.927ZM176.258 12.411c0 3.564 2.403 6.31 5.676 6.31 1.531 0 2.798-.74 3.643-1.901l.396 1.636h3.089V8.068a1.729 1.729 0 0 0-3.409-.407l-.076.315c-.845-1.162-2.085-1.9-3.643-1.9-3.273 0-5.676 2.745-5.676 6.335Zm6.442 3.194c-1.743 0-3.01-1.372-3.01-3.194 0-1.848 1.267-3.22 3.01-3.22 1.742 0 3.009 1.372 3.009 3.22 0 1.822-1.267 3.194-3.009 3.194ZM190.183 12.411c0 3.59 2.429 6.31 5.676 6.31 1.742 0 3.168-.95 4.013-2.509.422.66.554 1.136.554 1.77 0 1.768-1.637 2.982-4.039 2.982-1.584 0-3.115-.528-4.541-1.584l-1.61 2.614c1.901 1.32 4.066 2.006 6.309 2.006 4.33 0 7.313-2.402 7.313-5.887 0-.95-.264-1.98-.686-2.772l-.185-.343v-6.93a1.729 1.729 0 0 0-3.409-.407l-.076.315c-.871-1.188-2.138-1.9-3.643-1.9-3.247 0-5.676 2.718-5.676 6.335Zm6.442 3.194c-1.743 0-3.01-1.346-3.01-3.194 0-1.848 1.267-3.22 3.01-3.22 1.742 0 3.009 1.372 3.009 3.22s-1.267 3.194-3.009 3.194ZM228.441 8.095a1.755 1.755 0 1 0-3.511 0v5.82c-.66 1.057-1.557 1.611-2.56 1.611-1.347 0-2.112-.897-2.112-2.481v-4.95a1.756 1.756 0 0 0-3.511 0v5.478c0 3.168 1.689 5.148 4.54 5.148 1.399 0 2.746-.713 3.67-1.901l.422 1.636h3.062V8.095ZM233.37 7.657a1.73 1.73 0 0 0-3.413.414v10.385h3.511v-7.391c.687-.898 1.611-1.294 2.64-1.294.291 0 .634.053 1.03.159l.924-3.67a3.402 3.402 0 0 0-1.188-.185c-1.294 0-2.534.766-3.406 1.98l-.098-.398Z"/><path fill="#FF6E14" fill-rule="evenodd" d="M206.331 17.179c.921.873 2.513 1.541 4.031 1.541 3.104 0 4.967-1.386 5.872-3.26l-2.369-1.73c-.468.91-1.641 2.006-3.078 2.006-.812 0-1.289-.354-1.624-.652l6.369-4.632c-.739-2.452-2.512-4.403-5.821-4.403-3.81 0-5.621 3.216-5.621 5.798 0 1.096.158 2.023.579 2.974a7.702 7.702 0 0 0 1.662 2.357Zm.97-5.518c0-1.847 1.276-2.694 2.411-2.694 1.195 0 1.624.73 1.841 1.057l-3.988 3.018a4.482 4.482 0 0 1-.264-1.382v.001Z" clip-rule="evenodd"/><defs><linearGradient id="a" x1="13.046" x2="16.731" y1="10.245" y2="10.251" gradientUnits="userSpaceOnUse"><stop stop-color="#FF6E14"/><stop offset="1" stop-color="#F05069"/></linearGradient><linearGradient id="b" x1="-.04" x2="3.649" y1="10.245" y2="10.251" gradientUnits="userSpaceOnUse"><stop stop-color="#FF6E14"/><stop offset="1" stop-color="#F05069"/></linearGradient><linearGradient id="c" x1="4.172" x2="14.803" y1="11.358" y2="11.39" gradientUnits="userSpaceOnUse"><stop stop-color="#FF6E14"/><stop offset="1" stop-color="#F05069"/></linearGradient></defs></svg>